<svg width="16" height="16" viewBox="0 0 8 8" fill="none" xmlns="http://www.w3.org/2000/svg">
<path d="M6.6436 0.27902C6.55538 0.190307 6.45044 0.119969 6.33486 0.072076C6.21928 0.0241832 6.09535 -0.000313611 5.97024 3.03085e-06H4C3.7475 0.000299444 3.50543 0.100734 3.32689 0.279276C3.14835 0.457818 3.04791 0.699888 3.04762 0.952384V5.52381C3.04791 5.77631 3.14835 6.01838 3.32689 6.19692C3.50543 6.37546 3.7475 6.47589 4 6.47619H7.04762C7.30012 6.47593 7.54221 6.3755 7.72076 6.19695C7.89931 6.0184 7.99973 5.77632 8 5.52381V2.02995C8.00037 1.9048 7.97591 1.78082 7.92801 1.6652C7.88011 1.54958 7.80974 1.44462 7.72098 1.3564L6.6436 0.27902ZM6.09524 0.396232C6.20069 0.41971 6.29739 0.472437 6.37425 0.548365L7.45163 1.62575C7.52802 1.70232 7.58095 1.79913 7.60419 1.90476H6.66666C6.51516 1.9046 6.36991 1.84434 6.26279 1.73721C6.15566 1.63009 6.0954 1.48484 6.09524 1.33334V0.396232ZM7.61904 5.52381C7.61888 5.67531 7.55862 5.82056 7.45149 5.92769C7.34437 6.03482 7.19912 6.09507 7.04762 6.09524H4C3.8485 6.09507 3.70325 6.03482 3.59612 5.92769C3.48899 5.82056 3.42874 5.67531 3.42857 5.52381V0.952384C3.42874 0.800882 3.48899 0.655633 3.59612 0.548505C3.70325 0.441378 3.8485 0.381121 4 0.380955H5.71428V1.33334C5.71455 1.58584 5.81497 1.82793 5.99352 2.00648C6.17207 2.18503 6.41416 2.28545 6.66666 2.28572H7.61904V5.52381ZM0 7.04762V2.47619C0.000296413 2.2237 0.100731 1.98163 0.279273 1.80309C0.457815 1.62454 0.699884 1.52411 0.952381 1.52381H2.47619V1.90476H0.952381C0.800879 1.90493 0.65563 1.96519 0.548502 2.07231C0.441375 2.17944 0.381118 2.32469 0.380952 2.47619V7.04762C0.381118 7.19912 0.441375 7.34437 0.548502 7.4515C0.65563 7.55863 0.800879 7.61888 0.952381 7.61905H4C4.1515 7.61888 4.29675 7.55863 4.40388 7.4515C4.511 7.34437 4.57126 7.19912 4.57143 7.04762H4.95238C4.95211 7.30013 4.85169 7.54221 4.67314 7.72076C4.49459 7.89931 4.2525 7.99973 4 8H0.952381C0.699884 7.9997 0.457815 7.89927 0.279273 7.72073C0.100731 7.54218 0.000296413 7.30012 0 7.04762Z" fill="#00b1fd"/>
</svg>
