<svg width="21" height="21" viewBox="0 0 21 21" fill="none" xmlns="http://www.w3.org/2000/svg">
<g clip-path="url(#clip0_157_10)">
<path d="M10.5 3.9375C6.125 3.9375 2.38875 6.65875 0.875 10.5C2.38875 14.3412 6.125 17.0625 10.5 17.0625C14.8794 17.0625 18.6112 14.3412 20.125 10.5C18.6112 6.65875 14.8794 3.9375 10.5 3.9375ZM10.5 14.875C8.085 14.875 6.125 12.915 6.125 10.5C6.125 8.085 8.085 6.125 10.5 6.125C12.915 6.125 14.875 8.085 14.875 10.5C14.875 12.915 12.915 14.875 10.5 14.875ZM10.5 7.875C9.05188 7.875 7.875 9.05188 7.875 10.5C7.875 11.9481 9.05188 13.125 10.5 13.125C11.9481 13.125 13.125 11.9481 13.125 10.5C13.125 9.05188 11.9481 7.875 10.5 7.875Z" fill="url(#paint0_linear_157_10)"/>
<path d="M17.2952 3.29443L3.00012 18.0006" stroke="url(#paint1_linear_157_10)" stroke-width="1.4"/>
</g>
<defs>
<linearGradient id="paint0_linear_157_10" x1="10.5" y1="3.9375" x2="10.5" y2="17.0625" gradientUnits="userSpaceOnUse">
<stop stop-color="#07b3fc"/>
<stop offset="1" stop-color="#07b3fc"/>
</linearGradient>
<linearGradient id="paint1_linear_157_10" x1="17.5" y1="3.00001" x2="2.50001" y2="18" gradientUnits="userSpaceOnUse">
<stop stop-color="#07b3fc"/>
<stop offset="1" stop-color="#07b3fc"/>
</linearGradient>
<clipPath id="clip0_157_10">
<rect width="21" height="21" fill="white"/>
</clipPath>
</defs>
</svg>
