<svg width="18" height="18" viewBox="0 0 21 15" fill="none" xmlns="http://www.w3.org/2000/svg">
<path d="M10.5 0.9375C6.125 0.9375 2.38875 3.65875 0.875 7.5C2.38875 11.3412 6.125 14.0625 10.5 14.0625C14.8794 14.0625 18.6112 11.3412 20.125 7.5C18.6112 3.65875 14.8794 0.9375 10.5 0.9375ZM10.5 11.875C8.085 11.875 6.125 9.915 6.125 7.5C6.125 5.085 8.085 3.125 10.5 3.125C12.915 3.125 14.875 5.085 14.875 7.5C14.875 9.915 12.915 11.875 10.5 11.875ZM10.5 4.875C9.05188 4.875 7.875 6.05188 7.875 7.5C7.875 8.94812 9.05188 10.125 10.5 10.125C11.9481 10.125 13.125 8.94812 13.125 7.5C13.125 6.05188 11.9481 4.875 10.5 4.875Z" fill="url(#paint0_linear_157_16)"/>
<defs>
<linearGradient id="paint0_linear_157_16" x1="10.5" y1="0.9375" x2="10.5" y2="14.0625" gradientUnits="userSpaceOnUse">
<stop stop-color="#07b3fc"/>
<stop offset="1" stop-color="#07b3fc"/>
</linearGradient>
</defs>
</svg>
