<svg width="1007" height="532" viewBox="0 0 1007 532" fill="none" xmlns="http://www.w3.org/2000/svg">
<path d="M400.836 133.065C408.059 133.065 414.573 134.032 420.377 135.967C426.31 137.901 431.34 140.61 435.468 144.093C439.595 147.575 442.755 151.831 444.948 156.862C447.27 161.763 448.431 167.309 448.431 173.5C448.431 179.176 447.205 184.528 444.755 189.559C442.304 194.46 438.95 198.717 434.694 202.328C430.438 205.94 425.407 208.777 419.603 210.841C413.799 212.905 407.543 213.936 400.836 213.936H313.58V187.431H400.836C406.769 187.431 411.735 186.141 415.734 183.561C419.732 180.852 421.731 177.499 421.731 173.5C421.731 164.343 414.766 159.764 400.836 159.764H365.044C357.821 159.764 351.243 158.796 345.309 156.862C339.505 154.927 334.539 152.218 330.412 148.736C326.284 145.253 323.06 141.061 320.738 136.16C318.546 131.13 317.449 125.519 317.449 119.328C317.449 113.653 318.674 108.364 321.125 103.463C323.576 98.4328 326.929 94.1119 331.186 90.5004C335.442 86.7599 340.472 83.8578 346.277 81.7941C352.081 79.7304 358.337 78.6985 365.044 78.6985H446.302V105.398H365.044C359.11 105.398 354.08 106.752 349.953 109.461C345.954 112.04 343.955 115.329 343.955 119.328C343.955 128.486 350.985 133.065 365.044 133.065H400.836ZM511.087 140.223V113.717H548.428C555.006 113.717 561.197 115.007 567.001 117.587C572.805 120.037 577.836 123.391 582.092 127.647C586.348 131.904 589.702 136.934 592.153 142.738C594.732 148.542 596.022 154.734 596.022 161.312V214.13H569.516V161.312C569.516 158.345 568.936 155.636 567.775 153.186C566.614 150.606 565.066 148.349 563.132 146.414C561.326 144.479 559.133 142.996 556.554 141.964C554.103 140.803 551.394 140.223 548.428 140.223H511.087ZM472.586 78.6985H499.092V214.13H472.586V78.6985ZM735.039 113.717V214.13H664.421C657.843 214.13 651.652 212.905 645.848 210.454C640.043 207.874 635.013 204.456 630.757 200.2C626.5 195.943 623.082 190.913 620.503 185.109C618.052 179.305 616.827 173.114 616.827 166.535V161.312C616.827 154.734 618.052 148.542 620.503 142.738C623.082 136.934 626.5 131.904 630.757 127.647C635.013 123.391 640.043 120.037 645.848 117.587C651.652 115.007 657.843 113.717 664.421 113.717H735.039ZM708.533 140.223H664.421C661.583 140.223 658.875 140.803 656.295 141.964C653.716 142.996 651.458 144.479 649.524 146.414C647.589 148.349 646.041 150.606 644.88 153.186C643.848 155.636 643.332 158.345 643.332 161.312V166.535C643.332 169.373 643.848 172.082 644.88 174.661C646.041 177.241 647.589 179.498 649.524 181.433C651.458 183.368 653.716 184.915 656.295 186.076C658.875 187.108 661.583 187.624 664.421 187.624H708.533V140.223ZM863.006 113.717V140.223H808.447C805.609 140.223 802.901 140.803 800.321 141.964C797.741 142.996 795.484 144.479 793.549 146.414C791.615 148.349 790.067 150.606 788.906 153.186C787.874 155.636 787.358 158.345 787.358 161.312V214.13H760.852V161.312C760.852 154.734 762.078 148.542 764.528 142.738C767.108 136.934 770.526 131.904 774.782 127.647C779.039 123.391 784.069 120.037 789.873 117.587C795.678 115.007 801.869 113.717 808.447 113.717H863.006ZM996.76 169.824H903.699C904.473 174.984 906.795 179.24 910.664 182.594C914.663 185.947 919.242 187.624 924.401 187.624H991.536V214.13H924.401C917.823 214.13 911.632 212.905 905.827 210.454C900.023 207.874 894.993 204.456 890.737 200.2C886.48 195.943 883.062 190.913 880.482 185.109C878.032 179.305 876.806 173.114 876.806 166.535V161.312C876.806 154.734 878.032 148.542 880.482 142.738C883.062 136.934 886.48 131.904 890.737 127.647C894.993 123.391 900.023 120.037 905.827 117.587C911.632 115.007 917.823 113.717 924.401 113.717H949.552C956.131 113.717 962.257 114.943 967.932 117.393C973.737 119.844 978.767 123.197 983.023 127.454C987.28 131.71 990.633 136.741 993.084 142.545C995.535 148.22 996.76 154.282 996.76 160.731V169.824ZM970.254 157.829C969.48 154.605 968.19 151.638 966.385 148.929C964.837 146.737 962.644 144.737 959.807 142.932C956.969 141.126 953.164 140.223 948.392 140.223H924.401C919.242 140.223 914.663 141.9 910.664 145.253C906.795 148.607 904.473 152.799 903.699 157.829H970.254Z" fill="white"/>
<path d="M407.608 303.382C414.186 303.382 420.377 304.672 426.181 307.252C431.985 309.702 437.016 313.12 441.272 317.506C445.529 321.762 448.882 326.792 451.333 332.597C453.912 338.272 455.202 344.398 455.202 350.977V356.2C455.202 362.778 453.912 368.97 451.333 374.774C448.882 380.578 445.464 385.673 441.079 390.058C436.822 394.315 431.792 397.733 425.988 400.312C420.313 402.763 414.186 403.988 407.608 403.988H358.079V377.289H407.608C410.574 377.289 413.283 376.773 415.734 375.741C418.313 374.58 420.506 373.097 422.312 371.291C424.246 369.357 425.73 367.099 426.762 364.52C427.922 361.94 428.503 359.167 428.503 356.2V350.977C428.503 348.01 427.922 345.301 426.762 342.851C425.73 340.271 424.246 338.078 422.312 336.273C420.506 334.338 418.313 332.855 415.734 331.823C413.283 330.662 410.574 330.081 407.608 330.081H346.083V438.813H319.577V303.382H407.608ZM490.277 333.757C485.891 333.757 482.344 332.339 479.636 329.501C476.54 326.405 475.121 322.794 475.379 318.666C475.121 314.539 476.54 310.928 479.636 307.832C482.344 304.865 485.891 303.382 490.277 303.382C494.662 303.382 498.338 304.865 501.305 307.832C504.271 310.67 505.755 314.281 505.755 318.666C505.755 323.181 504.271 326.857 501.305 329.694C498.338 332.403 494.662 333.757 490.277 333.757ZM477.314 438.813V338.401H503.82V438.813H477.314ZM527.27 385.995C527.27 379.417 528.495 373.29 530.946 367.615C533.525 361.811 536.943 356.781 541.2 352.524C545.585 348.139 550.615 344.721 556.291 342.27C562.095 339.82 568.286 338.594 574.864 338.594H645.482V365.1H574.864C572.026 365.1 569.318 365.681 566.738 366.841C564.158 367.873 561.901 369.357 559.967 371.291C558.032 373.226 556.484 375.483 555.323 378.063C554.291 380.513 553.775 383.222 553.775 386.189V391.219C553.775 394.057 554.291 396.765 555.323 399.345C556.484 401.925 558.032 404.182 559.967 406.116C561.901 408.051 564.158 409.599 566.738 410.76C569.318 411.792 572.026 412.308 574.864 412.308H645.482V438.813H574.864C568.286 438.813 562.095 437.588 556.291 435.137C550.615 432.558 545.585 429.14 541.2 424.883C536.943 420.627 533.525 415.661 530.946 409.986C528.495 404.182 527.27 397.991 527.27 391.412V385.995ZM665.006 385.995C665.006 379.417 666.231 373.29 668.682 367.615C671.262 361.811 674.68 356.781 678.936 352.524C683.321 348.139 688.352 344.721 694.027 342.27C699.831 339.82 706.022 338.594 712.6 338.594H783.218V365.1H712.6C709.763 365.1 707.054 365.681 704.475 366.841C701.895 367.873 699.638 369.357 697.703 371.291C695.768 373.226 694.22 375.483 693.06 378.063C692.028 380.513 691.512 383.222 691.512 386.189V391.219C691.512 394.057 692.028 396.765 693.06 399.345C694.22 401.925 695.768 404.182 697.703 406.116C699.638 408.051 701.895 409.599 704.475 410.76C707.054 411.792 709.763 412.308 712.6 412.308H783.218V438.813H712.6C706.022 438.813 699.831 437.588 694.027 435.137C688.352 432.558 683.321 429.14 678.936 424.883C674.68 420.627 671.262 415.661 668.682 409.986C666.231 404.182 665.006 397.991 665.006 391.412V385.995Z" fill="white"/>
<path d="M140.867 185.497C140.867 185.497 155.801 154.18 169.586 125.274C183.37 96.3681 221.073 56.9863 269.251 79.9608L212.503 198.962L140.867 185.497Z" fill="white"/>
<path d="M8.12314 249.338L154.391 249.905C175.004 249.985 193.812 238.168 202.684 219.563L244.096 132.723C221.523 180.058 110.069 173.987 79.4299 174.614C35.2903 175.513 5.25176 210.714 8.12314 249.338Z" fill="url(#paint0_linear_258_253)"/>
<path d="M143.583 129.582C153.195 109.426 144.647 85.2949 124.491 75.6832C104.335 66.0715 80.2038 74.6192 70.5921 94.775C60.9803 114.931 69.528 139.062 89.6839 148.674C109.84 158.286 133.971 149.738 143.583 129.582Z" fill="url(#paint1_linear_258_253)"/>
<path d="M158.492 344.323C158.492 344.323 123.8 343.968 91.7767 343.639C59.7534 343.311 8.15463 325.7 8.70335 272.327L140.534 273.68L158.492 344.323Z" fill="white"/>
<path d="M272.3 437.84L211.212 304.939C202.604 286.21 183.964 274.128 163.351 273.917L67.1461 272.93C119.586 273.467 161.019 377.112 174.491 404.635C193.9 444.29 238.478 456.71 272.3 437.84Z" fill="url(#paint2_linear_258_253)"/>
<path d="M141.026 426.416C152.389 407.193 146.017 382.398 126.794 371.035C107.571 359.672 82.776 366.044 71.4132 385.268C60.0503 404.491 66.4223 429.286 85.6455 440.649C104.869 452.011 129.664 445.639 141.026 426.416Z" fill="url(#paint3_linear_258_253)"/>
<defs>
<linearGradient id="paint0_linear_258_253" x1="13.6598" y1="197.411" x2="183.067" y2="191.859" gradientUnits="userSpaceOnUse">
<stop stop-color="#8FE3D5"/>
<stop offset="1" stop-color="#03B4E1"/>
</linearGradient>
<linearGradient id="paint1_linear_258_253" x1="89.6848" y1="148.673" x2="124.492" y2="75.6827" gradientUnits="userSpaceOnUse">
<stop stop-color="#96F7D0"/>
<stop offset="1" stop-color="#5139FF"/>
</linearGradient>
<linearGradient id="paint2_linear_258_253" x1="222.874" y1="454.686" x2="146.489" y2="303.373" gradientUnits="userSpaceOnUse">
<stop stop-color="#6C00CF"/>
<stop offset="1" stop-color="#E50A6D"/>
</linearGradient>
<linearGradient id="paint3_linear_258_253" x1="146.65" y1="406.255" x2="65.7887" y2="405.427" gradientUnits="userSpaceOnUse">
<stop stop-color="#6B00D0"/>
<stop offset="1" stop-color="#E50A6D"/>
</linearGradient>
</defs>
</svg>
